<svg width="42" height="42" viewBox="0 0 42 42" fill="none" xmlns="http://www.w3.org/2000/svg">
<path d="M13.125 7.875C13.125 5.78642 13.9547 3.78338 15.4315 2.30653C16.9084 0.829685 18.9114 0 21 0C23.0886 0 25.0916 0.829685 26.5685 2.30653C28.0453 3.78338 28.875 5.78642 28.875 7.875V21C28.875 23.0886 28.0453 25.0916 26.5685 26.5685C25.0916 28.0453 23.0886 28.875 21 28.875C18.9114 28.875 16.9084 28.0453 15.4315 26.5685C13.9547 25.0916 13.125 23.0886 13.125 21V7.875Z" fill="#2684FF"/>
<path d="M9.1875 17.0625C9.5356 17.0625 9.86944 17.2008 10.1156 17.4469C10.3617 17.6931 10.5 18.0269 10.5 18.375V21C10.5 23.7848 11.6062 26.4555 13.5754 28.4246C15.5445 30.3938 18.2152 31.5 21 31.5C23.7848 31.5 26.4555 30.3938 28.4246 28.4246C30.3938 26.4555 31.5 23.7848 31.5 21V18.375C31.5 18.0269 31.6383 17.6931 31.8844 17.4469C32.1306 17.2008 32.4644 17.0625 32.8125 17.0625C33.1606 17.0625 33.4944 17.2008 33.7406 17.4469C33.9867 17.6931 34.125 18.0269 34.125 18.375V21C34.125 24.2538 32.9165 27.3916 30.7338 29.8046C28.5511 32.2177 25.55 33.734 22.3125 34.0594V39.375H30.1875C30.5356 39.375 30.8694 39.5133 31.1156 39.7594C31.3617 40.0056 31.5 40.3394 31.5 40.6875C31.5 41.0356 31.3617 41.3694 31.1156 41.6156C30.8694 41.8617 30.5356 42 30.1875 42H11.8125C11.4644 42 11.1306 41.8617 10.8844 41.6156C10.6383 41.3694 10.5 41.0356 10.5 40.6875C10.5 40.3394 10.6383 40.0056 10.8844 39.7594C11.1306 39.5133 11.4644 39.375 11.8125 39.375H19.6875V34.0594C16.45 33.734 13.4489 32.2177 11.2662 29.8046C9.08351 27.3916 7.87496 24.2538 7.875 21V18.375C7.875 18.0269 8.01328 17.6931 8.25942 17.4469C8.50556 17.2008 8.8394 17.0625 9.1875 17.0625Z" fill="#2684FF"/>
</svg>
