<svg width="22" height="22" viewBox="0 0 22 22" fill="none" xmlns="http://www.w3.org/2000/svg">
<path d="M8.33831 8.18472V12.8802C8.33831 13.2166 8.4919 13.4726 8.79908 13.6481C9.10626 13.8237 9.40613 13.8091 9.69868 13.6043L13.341 11.2785C13.6189 11.1029 13.7579 10.8543 13.7579 10.5325C13.7579 10.2106 13.6189 9.96198 13.341 9.78644L9.69868 7.46065C9.40613 7.25586 9.10626 7.24123 8.79908 7.41676C8.4919 7.5923 8.33831 7.84828 8.33831 8.18472ZM10.5325 19.3091C9.31836 19.3091 8.1774 19.0785 7.10958 18.6175C6.04176 18.157 5.11291 17.5318 4.32301 16.7419C3.53312 15.952 2.90793 15.0231 2.44746 13.9553C1.98639 12.8875 1.75586 11.7466 1.75586 10.5325C1.75586 9.31836 1.98639 8.1774 2.44746 7.10958C2.90793 6.04176 3.53312 5.11291 4.32301 4.32301C5.11291 3.53312 6.04176 2.90764 7.10958 2.44658C8.1774 1.9861 9.31836 1.75586 10.5325 1.75586C11.7466 1.75586 12.8875 1.9861 13.9553 2.44658C15.0231 2.90764 15.952 3.53312 16.7419 4.32301C17.5318 5.11291 18.157 6.04176 18.6175 7.10958C19.0785 8.1774 19.3091 9.31836 19.3091 10.5325C19.3091 11.7466 19.0785 12.8875 18.6175 13.9553C18.157 15.0231 17.5318 15.952 16.7419 16.7419C15.952 17.5318 15.0231 18.157 13.9553 18.6175C12.8875 19.0785 11.7466 19.3091 10.5325 19.3091Z" fill="#222222" fill-opacity="0.8"/>
</svg>
