<svg width="17" height="16" viewBox="0 0 17 16" fill="none" xmlns="http://www.w3.org/2000/svg">
<g clip-path="url(#clip0_2124_3971)">
<path d="M9.469 1.13594C9.55242 1.18239 9.62183 1.24981 9.67014 1.33133C9.71846 1.41285 9.74394 1.50554 9.744 1.59994V14.3999C9.74402 14.4943 9.71863 14.587 9.67041 14.6685C9.6222 14.7501 9.55289 14.8175 9.46957 14.8641C9.38624 14.9106 9.29187 14.9345 9.1961 14.9333C9.10033 14.9322 9.00658 14.906 8.92442 14.8575L3.63993 11.7333H1.624C1.19329 11.7333 0.780218 11.5647 0.475659 11.2646C0.171099 10.9646 0 10.5576 0 10.1333L0 5.86341C0.000287016 5.43925 0.171513 5.03255 0.476041 4.73273C0.780569 4.4329 1.19348 4.26447 1.624 4.26447H3.63993L8.92334 1.14234C9.00557 1.09376 9.09942 1.06757 9.19529 1.06644C9.29117 1.06532 9.38562 1.0893 9.469 1.13594ZM14.9993 4.42021L14.616 4.04367L13.8506 4.79781L14.2306 5.17327L14.2338 5.17541L14.2555 5.19887C14.4184 5.39516 14.5586 5.60875 14.6734 5.83567C14.9116 6.30394 15.1573 7.02181 15.1573 7.99567C15.1573 8.96954 14.9105 9.68741 14.6734 10.1557C14.5821 10.3376 14.4745 10.5111 14.3518 10.6741C14.3142 10.723 14.2745 10.7704 14.2327 10.8159L14.2306 10.8191L13.8506 11.1925L14.616 11.9477L14.9993 11.5711L15.0003 11.569L15.0025 11.5669L15.0079 11.5615L15.0231 11.5466L15.0696 11.4954C15.1075 11.4527 15.1584 11.3919 15.218 11.3141C15.3371 11.1583 15.4897 10.9301 15.6413 10.6325C15.9444 10.0351 16.24 9.15407 16.24 7.99567C16.24 6.83727 15.9455 5.95727 15.6413 5.35887C15.5215 5.11972 15.3802 4.89161 15.219 4.67727C15.1576 4.59702 15.0922 4.51977 15.0231 4.44581L15.0079 4.42981L15.0025 4.42447L15.0003 4.42234C15.0003 4.42127 14.9982 4.42021 14.616 4.79781L14.9993 4.42021Z" fill="#222222"/>
</g>
<defs>
<clipPath id="clip0_2124_3971">
<rect width="16.24" height="16" fill="white"/>
</clipPath>
</defs>
</svg>
