<svg width="22" height="22" viewBox="0 0 22 22" fill="none" xmlns="http://www.w3.org/2000/svg">
<circle cx="10.8541" cy="10.6867" r="9.165" fill="#00B85E"/>
<path d="M9.99725 12.0315L13.6022 8.42657C13.7142 8.31455 13.8567 8.25854 14.0299 8.25854C14.203 8.25854 14.3455 8.31455 14.4576 8.42657C14.5696 8.53859 14.6256 8.68115 14.6256 8.85427C14.6256 9.02739 14.5696 9.16995 14.4576 9.28197L10.425 13.3146C10.3028 13.4368 10.1602 13.4979 9.99725 13.4979C9.83432 13.4979 9.69175 13.4368 9.56955 13.3146L7.98095 11.726C7.86894 11.614 7.81293 11.4714 7.81293 11.2983C7.81293 11.1252 7.86894 10.9826 7.98095 10.8706C8.09297 10.7586 8.23554 10.7025 8.40865 10.7025C8.58177 10.7025 8.72434 10.7586 8.83635 10.8706L9.99725 12.0315Z" fill="white"/>
</svg>
