<svg width="22" height="22" viewBox="0 0 22 22" fill="none" xmlns="http://www.w3.org/2000/svg">
<path d="M5.66576 6.058C5.66576 5.11501 6.08721 4.21064 6.83741 3.54384C7.58761 2.87704 8.60509 2.50244 9.66603 2.50244C10.727 2.50244 11.7445 2.87704 12.4947 3.54384C13.2448 4.21064 13.6663 5.11501 13.6663 6.058C13.6663 6.21516 13.5961 6.36589 13.471 6.47702C13.346 6.58816 13.1764 6.65059 12.9996 6.65059C12.8228 6.65059 12.6532 6.58816 12.5282 6.47702C12.4031 6.36589 12.3329 6.21516 12.3329 6.058C12.3329 5.42934 12.0519 4.82642 11.5518 4.38189C11.0516 3.93736 10.3733 3.68763 9.66603 3.68763C8.95874 3.68763 8.28042 3.93736 7.78028 4.38189C7.28015 4.82642 6.99918 5.42934 6.99918 6.058C6.99918 6.21516 6.92894 6.36589 6.80391 6.47702C6.67887 6.58816 6.50929 6.65059 6.33247 6.65059C6.15565 6.65059 5.98607 6.58816 5.86103 6.47702C5.736 6.36589 5.66576 6.21516 5.66576 6.058ZM17.6024 10.2061C16.8849 10.2358 16.3331 10.7854 16.3331 11.4232V11.9624C16.3355 12.1154 16.2726 12.2634 16.1571 12.3768C16.0416 12.4902 15.8821 12.5605 15.7106 12.5736C15.6194 12.5789 15.5279 12.5676 15.4419 12.5402C15.3558 12.5129 15.277 12.4701 15.2104 12.4145C15.1437 12.3589 15.0906 12.2918 15.0544 12.2172C15.0181 12.1426 14.9995 12.0622 14.9997 11.981V10.2395C14.9997 9.6017 14.448 9.05429 13.7305 9.02244C13.5502 9.01472 13.37 9.03962 13.2009 9.09562C13.0317 9.15162 12.8771 9.23756 12.7464 9.34824C12.6158 9.45891 12.5117 9.59202 12.4406 9.73948C12.3696 9.88695 12.3329 10.0457 12.3329 10.2061V11.3713C12.3352 11.5243 12.2723 11.6723 12.1568 11.7857C12.0413 11.899 11.8818 11.9693 11.7103 11.9824C11.6191 11.9878 11.5277 11.9765 11.4416 11.9491C11.3556 11.9218 11.2767 11.879 11.2101 11.8234C11.1434 11.7678 11.0903 11.7007 11.0541 11.6261C11.0178 11.5515 10.9993 11.4711 10.9995 11.3898V6.09133C10.9995 5.45355 10.4478 4.90615 9.7302 4.87429C9.54991 4.86657 9.36973 4.89147 9.20058 4.94747C9.03144 5.00347 8.87684 5.08941 8.74617 5.20009C8.61549 5.31076 8.51146 5.44387 8.44037 5.59133C8.36929 5.7388 8.33262 5.89756 8.33261 6.058V14.9276C8.33463 15.0709 8.2795 15.2103 8.17699 15.3209C8.07448 15.4316 7.93121 15.5064 7.77257 15.5321H7.76257C7.66312 15.542 7.56259 15.5255 7.47362 15.4848C7.38465 15.4441 7.31121 15.3809 7.26253 15.3032L5.51241 12.6039C5.15406 12.0513 4.36734 11.821 3.72896 12.1136C3.56765 12.1865 3.42472 12.2878 3.30889 12.4114C3.19306 12.535 3.10675 12.6783 3.05521 12.8325C3.00367 12.9866 2.98799 13.1486 3.00912 13.3083C3.03024 13.4681 3.08773 13.6223 3.17809 13.7617L5.7616 18.2099C5.82008 18.2984 5.90344 18.3719 6.00352 18.4232C6.1036 18.4745 6.21695 18.5018 6.33247 18.5024H17.6666C17.7904 18.5025 17.9119 18.4719 18.0173 18.4141C18.1227 18.3563 18.2079 18.2735 18.2633 18.175C18.2933 18.1217 19 17.0595 19 15.1639V11.3913C19.0002 11.2308 18.9637 11.0718 18.8927 10.9242C18.8217 10.7766 18.7177 10.6433 18.587 10.5324C18.4563 10.4216 18.3017 10.3355 18.1324 10.2794C17.9632 10.2234 17.7828 10.1984 17.6024 10.2061Z" fill="#222222"/>
</svg>
