<svg width="16" height="16" viewBox="0 0 16 16" fill="none" xmlns="http://www.w3.org/2000/svg">
<path d="M12.7276 4.10894C12.815 4.02464 12.8847 3.92379 12.9327 3.81227C12.9806 3.70074 13.0059 3.58078 13.007 3.45939C13.0081 3.33799 12.985 3.21758 12.9391 3.1052C12.8932 2.99282 12.8254 2.8907 12.7396 2.80482C12.6538 2.71893 12.5517 2.651 12.4394 2.60497C12.327 2.55895 12.2067 2.53576 12.0853 2.53676C11.9639 2.53775 11.8439 2.56292 11.7323 2.61078C11.6207 2.65865 11.5198 2.72825 11.4354 2.81553L7.77098 6.47877L4.10774 2.81553C4.02404 2.72571 3.9231 2.65366 3.81095 2.60369C3.6988 2.55371 3.57773 2.52684 3.45497 2.52468C3.3322 2.52251 3.21026 2.5451 3.09642 2.59108C2.98258 2.63706 2.87916 2.70551 2.79234 2.79232C2.70552 2.87914 2.63708 2.98256 2.59109 3.0964C2.54511 3.21025 2.52253 3.33219 2.52469 3.45495C2.52686 3.57771 2.55373 3.69878 2.6037 3.81093C2.65367 3.92308 2.72572 4.02402 2.81555 4.10772L6.47635 7.77218L2.81311 11.4354C2.65161 11.6087 2.56369 11.838 2.56787 12.0748C2.57205 12.3117 2.668 12.5377 2.83551 12.7052C3.00303 12.8727 3.22902 12.9687 3.46588 12.9728C3.70274 12.977 3.93198 12.8891 4.1053 12.7276L7.77098 9.06437L11.4342 12.7288C11.6075 12.8903 11.8368 12.9782 12.0736 12.9741C12.3105 12.9699 12.5365 12.8739 12.704 12.7064C12.8715 12.5389 12.9675 12.3129 12.9716 12.0761C12.9758 11.8392 12.8879 11.61 12.7264 11.4366L9.06561 7.77218L12.7276 4.10894Z" fill="#1D1A16" fill-opacity="0.75"/>
</svg>
