<svg width="16" height="16" viewBox="0 0 16 16" fill="none" xmlns="http://www.w3.org/2000/svg">
<path fill-rule="evenodd" clip-rule="evenodd" d="M1.33333 0C0.979711 0 0.640573 0.180612 0.390524 0.502103C0.140476 0.823594 0 1.25963 0 1.71429V6.28571C0 6.74037 0.140476 7.17641 0.390524 7.4979C0.640573 7.81939 0.979711 8 1.33333 8H6.66667C7.02029 8 7.35943 7.81939 7.60948 7.4979C7.85952 7.17641 8 6.74037 8 6.28571V1.71429C8 1.25963 7.85952 0.823594 7.60948 0.502103C7.35943 0.180612 7.02029 0 6.66667 0H1.33333ZM11.1111 2.28571C10.7575 2.28571 10.4184 2.46633 10.1683 2.78782C9.91825 3.10931 9.77778 3.54534 9.77778 4V12C9.77778 12.4547 9.91825 12.8907 10.1683 13.2122C10.4184 13.5337 10.7575 13.7143 11.1111 13.7143H14.6667C15.0203 13.7143 15.3594 13.5337 15.6095 13.2122C15.8595 12.8907 16 12.4547 16 12V4C16 3.54534 15.8595 3.10931 15.6095 2.78782C15.3594 2.46633 15.0203 2.28571 14.6667 2.28571H11.1111ZM2.22222 10.2857C1.8686 10.2857 1.52946 10.4663 1.27941 10.7878C1.02936 11.1093 0.888889 11.5453 0.888889 12V14.2857C0.888889 14.7404 1.02936 15.1764 1.27941 15.4979C1.52946 15.8194 1.8686 16 2.22222 16H7.55556C7.90918 16 8.24832 15.8194 8.49836 15.4979C8.74841 15.1764 8.88889 14.7404 8.88889 14.2857V12C8.88889 11.5453 8.74841 11.1093 8.49836 10.7878C8.24832 10.4663 7.90918 10.2857 7.55556 10.2857H2.22222Z" fill="#222222"/>
</svg>
