<svg width="20" height="20" viewBox="0 0 20 20" fill="none" xmlns="http://www.w3.org/2000/svg">
<path fill-rule="evenodd" clip-rule="evenodd" d="M9.16663 9.16666V2.5C9.16663 2.03976 9.53972 1.66666 9.99996 1.66666C10.4602 1.66666 10.8333 2.03976 10.8333 2.5V9.16666H17.5C17.9602 9.16666 18.3333 9.53976 18.3333 10C18.3333 10.4602 17.9602 10.8333 17.5 10.8333H10.8333V17.5C10.8333 17.9602 10.4602 18.3333 9.99996 18.3333C9.53972 18.3333 9.16663 17.9602 9.16663 17.5V10.8333H2.49996C2.03972 10.8333 1.66663 10.4602 1.66663 10C1.66663 9.53976 2.03972 9.16666 2.49996 9.16666H9.16663Z" fill="white"/>
</svg>
