<svg width="16" height="16" viewBox="0 0 16 16" fill="none" xmlns="http://www.w3.org/2000/svg">
<path fill-rule="evenodd" clip-rule="evenodd" d="M15.2951 0.000879392C15.4854 -0.00881663 15.6709 0.0620248 15.8052 0.195689C15.9393 0.32917 16.0098 0.512744 15.9989 0.700605C15.4667 9.95209 7.13582 13.4242 7.05203 13.458C6.8023 13.5589 6.5157 13.502 6.32478 13.3136L2.53302 9.56512C2.34333 9.3773 2.2853 9.0957 2.38556 8.84949C2.41907 8.766 5.89245 0.485916 15.2951 0.000879392ZM8.8707 7.76517C9.37168 7.97027 9.94831 7.85682 10.3317 7.47772C10.855 6.96021 10.855 6.12134 10.3317 5.60383C9.94831 5.22473 9.37168 5.11128 8.8707 5.31638C8.36972 5.52147 8.04306 6.00473 8.04306 6.54077C8.04306 7.07682 8.36972 7.56007 8.8707 7.76517Z" fill="#222222"/>
<path d="M0.746019 12.4013C1.22704 11.9225 1.93029 11.7346 2.58983 11.9085C3.24936 12.0824 3.7645 12.5916 3.94041 13.2436C4.11633 13.8956 3.92618 14.5909 3.44187 15.0664C2.6972 15.8025 0 15.8178 0 15.8178C0 15.8178 0 13.1368 0.746019 12.4013Z" fill="#222222"/>
<path d="M6.94205 1.46596C5.0248 1.13608 3.0652 1.75026 1.69043 3.11191C1.33197 3.46956 1.02031 3.87026 0.762765 4.30462C0.607646 4.56501 0.650379 4.89616 0.866658 5.1097L2.19984 6.42832C3.43866 4.48473 5.04955 2.79906 6.94205 1.46596Z" fill="#222222"/>
<path d="M14.5175 8.95459C14.8512 10.8499 14.23 12.7871 12.8526 14.1462C12.4908 14.5006 12.0855 14.8087 11.6461 15.0633C11.3827 15.2166 11.0477 15.1744 10.8317 14.9606L9.49784 13.6426C11.4639 12.418 13.169 10.8255 14.5175 8.95459V8.95459Z" fill="#222222"/>
</svg>
