<svg width="70" height="70" viewBox="0 0 70 70" fill="none" xmlns="http://www.w3.org/2000/svg">
<g opacity="0.9" filter="url(#filter0_d_1285_543)">
<path d="M27.709 27.1986V42.8027C27.709 43.9208 28.2194 44.7715 29.2402 45.3548C30.2611 45.9381 31.2576 45.8895 32.2298 45.209L44.334 37.4798C45.2576 36.8965 45.7194 36.0701 45.7194 35.0006C45.7194 33.9312 45.2576 33.1048 44.334 32.5215L32.2298 24.7923C31.2576 24.1118 30.2611 24.0632 29.2402 24.6465C28.2194 25.2298 27.709 26.0805 27.709 27.1986ZM35.0006 64.1673C30.9659 64.1673 27.1743 63.4012 23.6257 61.869C20.077 60.3387 16.9902 58.2611 14.3652 55.6361C11.7402 53.0111 9.6626 49.9243 8.13232 46.3756C6.6001 42.827 5.83398 39.0354 5.83398 35.0006C5.83398 30.9659 6.6001 27.1743 8.13232 23.6257C9.6626 20.077 11.7402 16.9902 14.3652 14.3652C16.9902 11.7402 20.077 9.66162 23.6257 8.1294C27.1743 6.59912 30.9659 5.83398 35.0006 5.83398C39.0354 5.83398 42.827 6.59912 46.3756 8.1294C49.9243 9.66162 53.0111 11.7402 55.6361 14.3652C58.2611 16.9902 60.3387 20.077 61.869 23.6257C63.4012 27.1743 64.1673 30.9659 64.1673 35.0006C64.1673 39.0354 63.4012 42.827 61.869 46.3756C60.3387 49.9243 58.2611 53.0111 55.6361 55.6361C53.0111 58.2611 49.9243 60.3387 46.3756 61.869C42.827 63.4012 39.0354 64.1673 35.0006 64.1673Z" fill="#222222" fill-opacity="0.5"/>
</g>
<defs>
<filter id="filter0_d_1285_543" x="-4" y="0" width="78" height="78" filterUnits="userSpaceOnUse" color-interpolation-filters="sRGB">
<feFlood flood-opacity="0" result="BackgroundImageFix"/>
<feColorMatrix in="SourceAlpha" type="matrix" values="0 0 0 0 0 0 0 0 0 0 0 0 0 0 0 0 0 0 127 0" result="hardAlpha"/>
<feOffset dy="4"/>
<feGaussianBlur stdDeviation="2"/>
<feComposite in2="hardAlpha" operator="out"/>
<feColorMatrix type="matrix" values="0 0 0 0 0 0 0 0 0 0 0 0 0 0 0 0 0 0 0.25 0"/>
<feBlend mode="normal" in2="BackgroundImageFix" result="effect1_dropShadow_1285_543"/>
<feBlend mode="normal" in="SourceGraphic" in2="effect1_dropShadow_1285_543" result="shape"/>
</filter>
</defs>
</svg>
