<svg width="16" height="16" viewBox="0 0 16 16" fill="none" xmlns="http://www.w3.org/2000/svg">
<path d="M5.7475 6.87628V9.11794L8.02629 10.2945L10.2945 9.12016V6.87396L8.02632 5.69648L5.7475 6.87628Z" fill="#222222"/>
<path d="M4.30611 6.16204V9.83381L8.02719 11.7551L11.7357 9.83506V6.16069L8.02719 4.23556L4.30611 6.16204ZM10.8392 6.42619C10.9482 6.48283 11.0151 6.58527 11.0151 6.6959V9.29916C11.0151 9.40992 10.9481 9.51248 10.8388 9.56906L8.21049 10.9298C8.09889 10.9876 7.95783 10.9895 7.84271 10.93L5.20335 9.56727C5.09385 9.51073 5.02672 9.4081 5.02672 9.29718V6.69801C5.02672 6.58725 5.0937 6.48471 5.20299 6.42811L7.84238 5.06164C7.95599 5.0028 8.09738 5.00293 8.21088 5.06182L10.8392 6.42619Z" fill="#222222"/>
<path d="M13.9733 6.00844C13.2682 5.78733 12.8468 5.1671 12.957 4.53067L9.02086 2.48753C8.43519 2.92896 7.58112 2.92557 7.00493 2.50774L3.0468 4.55683C3.13897 5.18201 2.72813 5.77232 2.06932 5.99582V10.0054C2.74831 10.2378 3.13781 10.8364 3.04788 11.4418L7.01214 13.4891C7.60919 13.063 8.45407 13.0858 9.01592 13.5077L12.9576 11.4668C12.8493 10.8217 13.2789 10.2052 13.9733 9.99004V6.00844ZM12.4567 10.0136C12.4567 10.1244 12.3898 10.227 12.2805 10.2835L8.21183 12.39C8.10024 12.4478 7.95921 12.4496 7.84409 12.3902L3.76243 10.2827C3.65293 10.2262 3.5858 10.1236 3.5858 10.0126V5.98336C3.5858 5.8726 3.65279 5.77003 3.76207 5.71346L7.84373 3.60027C7.95734 3.54144 8.09873 3.54153 8.21223 3.60046L12.2808 5.71255C12.3899 5.76918 12.4567 5.87162 12.4567 5.98226V10.0136Z" fill="#222222"/>
<path d="M0.180251 4.42891L0.665568 4.673C0.626113 5.11444 1.03717 5.47607 1.52861 5.46063C1.80761 5.45271 2.07565 5.32327 2.22616 5.09736L2.22706 5.09601C2.38326 4.8603 2.37155 4.58033 2.22425 4.36122C1.97919 3.99648 1.42891 3.88789 1.02575 4.12913L0.540537 3.8851C0.368195 3.79839 0.147822 3.84987 0.0483371 4.00003C-0.0511838 4.15022 0.007909 4.34223 0.180251 4.42891Z" fill="#222222"/>
<path d="M15.8198 11.5712L15.3345 11.327C15.3741 10.8833 14.9606 10.5241 14.4714 10.5394C14.1924 10.5473 13.9244 10.6768 13.7739 10.9027L13.773 10.9041C13.6168 11.1398 13.6285 11.4197 13.7758 11.6388C14.0209 12.0036 14.5712 12.1121 14.9743 11.8709L15.4594 12.115C15.6315 12.2015 15.8519 12.1505 15.9516 12.0001C16.0512 11.8499 15.9921 11.6579 15.8198 11.5712Z" fill="#222222"/>
<path d="M7.9981 2.19196H7.9999C8.46619 2.19196 8.83837 1.86197 8.83837 1.46141C8.83837 1.16894 8.64174 0.919134 8.36022 0.802064V0.313944C8.36022 0.140553 8.19887 0 7.9999 0C7.80089 0 7.63958 0.140553 7.63958 0.313944V0.802253C7.3515 0.922242 7.16143 1.17503 7.16143 1.46141C7.16143 1.86087 7.5326 2.19098 7.9981 2.19196Z" fill="#222222"/>
<path d="M2.22702 10.904C1.994 10.5523 1.47996 10.4362 1.08166 10.6366C0.790666 10.783 0.640952 11.0564 0.665382 11.3272L0.180281 11.5711C0.00790264 11.6578 -0.0511542 11.8498 0.0482946 11.9999C0.148068 12.1505 0.368549 12.2013 0.540494 12.1149L1.02596 11.8708C1.28877 12.0278 1.63504 12.0453 1.92013 11.9019C2.3172 11.7022 2.45971 11.2571 2.22792 10.9053L2.22702 10.904Z" fill="#222222"/>
<path d="M8.00182 13.8077H8.00002C7.53373 13.8077 7.16155 14.1377 7.16155 14.5383C7.16155 14.8307 7.35818 15.0806 7.6397 15.1976V15.6857C7.6397 15.8591 7.80102 15.9997 8.00002 15.9997C8.19899 15.9997 8.36034 15.8591 8.36034 15.6857V15.1974C8.64842 15.0774 8.83849 14.8247 8.83849 14.5383C8.83849 14.1388 8.46736 13.8087 8.00182 13.8077Z" fill="#222222"/>
<path d="M13.7729 5.09604C13.9291 5.33175 14.2132 5.46291 14.5047 5.46131C14.9899 5.45877 15.3729 5.09767 15.3346 4.67287L15.8197 4.42894C15.992 4.34226 16.0511 4.15028 15.9516 4.00009C15.8521 3.84993 15.6318 3.79835 15.4594 3.88509L14.974 4.12922C14.5585 3.88095 13.9923 4.00464 13.7597 4.38668C13.6281 4.60117 13.6227 4.86812 13.772 5.09466L13.7729 5.09604Z" fill="#222222"/>
</svg>
