<svg width="16" height="16" viewBox="0 0 16 16" fill="none" xmlns="http://www.w3.org/2000/svg">
<path d="M5.74747 6.87624V9.11788L8.02624 10.2945L10.2945 9.12011V6.87392L8.02628 5.69645L5.74747 6.87624Z" fill="#222222"/>
<path d="M4.30609 6.16201V9.83375L8.02714 11.755L11.7357 9.83501V6.16066L8.02714 4.23553L4.30609 6.16201ZM10.8391 6.42616C10.9482 6.48279 11.015 6.58523 11.015 6.69587V9.29911C11.015 9.40987 10.9481 9.51243 10.8388 9.569L8.21044 10.9298C8.09885 10.9876 7.95778 10.9894 7.84266 10.93L5.20332 9.56721C5.09382 9.51067 5.02669 9.40804 5.02669 9.29713V6.69797C5.02669 6.58721 5.09367 6.48468 5.20296 6.42807L7.84234 5.06161C7.95595 5.00277 8.09733 5.0029 8.21084 5.0618L10.8391 6.42616Z" fill="#222222"/>
<path d="M13.9732 6.00841C13.2682 5.7873 12.8467 5.16707 12.9569 4.53065L9.02081 2.48751C8.43514 2.92895 7.58108 2.92555 7.00489 2.50773L3.04678 4.5568C3.13895 5.18198 2.72811 5.77229 2.0693 5.99579V10.0054C2.74829 10.2377 3.1378 10.8364 3.04786 11.4417L7.0121 13.489C7.60915 13.0629 8.45403 13.0857 9.01587 13.5077L12.9575 11.4667C12.8492 10.8216 13.2788 10.2052 13.9732 9.98998V6.00841ZM12.4567 10.0136C12.4567 10.1243 12.3897 10.2269 12.2804 10.2835L8.21178 12.3899C8.10019 12.4477 7.95916 12.4496 7.84404 12.3901L3.76241 10.2827C3.65291 10.2261 3.58578 10.1235 3.58578 10.0126V5.98332C3.58578 5.87256 3.65277 5.77 3.76205 5.71343L7.84368 3.60025C7.95729 3.54142 8.09868 3.54151 8.21218 3.60044L12.2808 5.71251C12.3898 5.76915 12.4567 5.87159 12.4567 5.98222V10.0136Z" fill="#222222"/>
<path d="M0.18025 4.42889L0.665565 4.67298C0.62611 5.11441 1.03716 5.47604 1.5286 5.46059C1.8076 5.45268 2.07564 5.32324 2.22615 5.09733L2.22705 5.09598C2.38324 4.86027 2.37153 4.5803 2.22424 4.3612C1.97918 3.99646 1.4289 3.88787 1.02574 4.1291L0.540534 3.88507C0.368193 3.79836 0.147821 3.84985 0.0483368 4.00001C-0.0511835 4.1502 0.00790895 4.34221 0.18025 4.42889Z" fill="#222222"/>
<path d="M15.8197 11.5711L15.3344 11.327C15.374 10.8832 14.9605 10.524 14.4714 10.5394C14.1924 10.5473 13.9243 10.6767 13.7738 10.9026L13.7729 10.904C13.6167 11.1397 13.6284 11.4197 13.7757 11.6388C14.0208 12.0035 14.5712 12.1121 14.9742 11.8708L15.4593 12.1149C15.6314 12.2014 15.8518 12.1505 15.9515 12C16.0511 11.8498 15.992 11.6578 15.8197 11.5711Z" fill="#222222"/>
<path d="M7.99817 2.19195H7.99998C8.46627 2.19195 8.83844 1.86196 8.83844 1.4614C8.83844 1.16893 8.64181 0.919129 8.3603 0.80206V0.313942C8.3603 0.140552 8.19894 0 7.99998 0C7.80097 0 7.63966 0.140552 7.63966 0.313942V0.802248C7.35158 0.922237 7.16151 1.17502 7.16151 1.4614C7.16151 1.86086 7.53268 2.19097 7.99817 2.19195Z" fill="#222222"/>
<path d="M2.227 10.9039C1.99398 10.5523 1.47995 10.4362 1.08166 10.6365C0.790661 10.7829 0.640948 11.0564 0.665378 11.3271L0.18028 11.571C0.00790259 11.6577 -0.0511539 11.8497 0.0482944 11.9999C0.148067 12.1505 0.368546 12.2013 0.540491 12.1148L1.02595 11.8707C1.28877 12.0278 1.63503 12.0453 1.92012 11.9019C2.31719 11.7021 2.4597 11.257 2.2279 10.9053L2.227 10.9039Z" fill="#222222"/>
<path d="M8.00178 13.8077H7.99998C7.53369 13.8077 7.16151 14.1376 7.16151 14.5382C7.16151 14.8307 7.35814 15.0805 7.63966 15.1975V15.6857C7.63966 15.859 7.80097 15.9996 7.99998 15.9996C8.19894 15.9996 8.3603 15.859 8.3603 15.6857V15.1973C8.64837 15.0774 8.83844 14.8246 8.83844 14.5382C8.83844 14.1387 8.46731 13.8086 8.00178 13.8077Z" fill="#222222"/>
<path d="M13.7728 5.09601C13.929 5.33172 14.2131 5.46288 14.5046 5.46128C14.9898 5.45874 15.3728 5.09764 15.3345 4.67285L15.8196 4.42891C15.9919 4.34224 16.051 4.15026 15.9515 4.00007C15.852 3.84991 15.6317 3.79833 15.4593 3.88507L14.9739 4.12919C14.5584 3.88093 13.9922 4.00462 13.7596 4.38666C13.628 4.60114 13.6227 4.86809 13.7719 5.09463L13.7728 5.09601Z" fill="#222222"/>
</svg>
