<svg width="20" height="20" viewBox="0 0 20 20" fill="none" xmlns="http://www.w3.org/2000/svg">
<g clip-path="url(#clip0_2073_631)">
<path d="M11.6613 1.41993C11.7641 1.47798 11.8495 1.56226 11.909 1.66416C11.9685 1.76606 11.9999 1.88193 12 1.99993V17.9999C12 18.1179 11.9688 18.2337 11.9094 18.3356C11.85 18.4376 11.7646 18.5219 11.662 18.5801C11.5594 18.6382 11.4432 18.6681 11.3252 18.6667C11.2073 18.6653 11.0918 18.6326 10.9907 18.5719L4.48267 14.6666H2C1.46957 14.6666 0.960859 14.4559 0.585786 14.0808C0.210714 13.7057 0 13.197 0 12.6666L0 7.32926C0.000353468 6.79906 0.211223 6.29069 0.586258 5.91591C0.961292 5.54112 1.4698 5.33059 2 5.33059H4.48267L10.9893 1.42793C11.0906 1.3672 11.2062 1.33446 11.3243 1.33306C11.4423 1.33165 11.5586 1.36163 11.6613 1.41993ZM18.472 5.52526L18 5.05459L17.0573 5.99726L17.5253 6.46659L17.5293 6.46926L17.556 6.49859C17.7566 6.74395 17.9293 7.01093 18.0707 7.29459C18.364 7.87993 18.6667 8.77726 18.6667 9.99459C18.6667 11.2119 18.3627 12.1093 18.0707 12.6946C17.9583 12.922 17.8257 13.1388 17.6747 13.3426C17.6284 13.4038 17.5794 13.463 17.528 13.5199L17.5253 13.5239L17.0573 13.9906L18 14.9346L18.472 14.4639L18.4733 14.4613L18.476 14.4586L18.4827 14.4519L18.5013 14.4333L18.5587 14.3693C18.6053 14.3159 18.668 14.2399 18.7413 14.1426C18.888 13.9479 19.076 13.6626 19.2627 13.2906C19.636 12.5439 20 11.4426 20 9.99459C20 8.54659 19.6373 7.44659 19.2627 6.69859C19.1151 6.39965 18.9411 6.11451 18.7427 5.84659C18.667 5.74627 18.5864 5.64971 18.5013 5.55726L18.4827 5.53726L18.476 5.53059L18.4733 5.52793C18.4733 5.52659 18.4707 5.52526 18 5.99726L18.472 5.52526Z" fill="#4E6475"/>
</g>
<defs>
<clipPath id="clip0_2073_631">
<rect width="20" height="20" fill="white"/>
</clipPath>
</defs>
</svg>
