<svg width="43" height="38" viewBox="0 0 43 38" fill="none" xmlns="http://www.w3.org/2000/svg">
<path d="M27.5201 3.40495L41.9273 26.9672C43.9977 30.3514 42.9808 34.8037 39.6547 36.9107C38.5384 37.6204 37.2372 37.9987 35.9073 38H7.09072C3.17556 38 0 34.77 0 30.7821C0 29.433 0.371951 28.1136 1.0707 26.9672L15.48 3.40495C17.5483 0.0208123 21.9215 -1.01575 25.2475 1.09115C26.1677 1.67383 26.946 2.4655 27.5201 3.40495ZM21.5001 29.5555C22.0703 29.5555 22.6171 29.3331 23.0203 28.9372C23.4235 28.5412 23.6501 28.0043 23.6501 27.4444C23.6501 26.8845 23.4235 26.3475 23.0203 25.9516C22.6171 25.5557 22.0703 25.3332 21.5001 25.3332C20.9298 25.3332 20.383 25.5557 19.9798 25.9516C19.5766 26.3475 19.3501 26.8845 19.3501 27.4444C19.3501 28.0043 19.5766 28.5412 19.9798 28.9372C20.383 29.3331 20.9298 29.5555 21.5001 29.5555ZM21.5001 10.5553C20.9298 10.5553 20.383 10.7778 19.9798 11.1737C19.5766 11.5696 19.3501 12.1066 19.3501 12.6665V21.111C19.3501 21.6709 19.5766 22.2079 19.9798 22.6038C20.383 22.9997 20.9298 23.2221 21.5001 23.2221C22.0703 23.2221 22.6171 22.9997 23.0203 22.6038C23.4235 22.2079 23.6501 21.6709 23.6501 21.111V12.6665C23.6501 12.1066 23.4235 11.5696 23.0203 11.1737C22.6171 10.7778 22.0703 10.5553 21.5001 10.5553Z" fill="#ED1D1D"/>
</svg>
