<svg width="16" height="16" viewBox="0 0 16 16" fill="none" xmlns="http://www.w3.org/2000/svg">
<path d="M10.2453 8.77861C10.2453 9.74394 11.0293 10.5279 11.9946 10.5279C12.3569 10.5271 12.7101 10.4145 13.006 10.2054C13.3019 9.99638 13.5261 9.70112 13.6479 9.35994C13.6674 9.30567 13.6759 9.2481 13.673 9.19053C13.6701 9.13296 13.6558 9.07653 13.6311 9.02449C13.6063 8.97244 13.5714 8.92581 13.5286 8.88728C13.4857 8.84874 13.4356 8.81906 13.3813 8.79994C13.327 8.78051 13.2694 8.772 13.2119 8.77489C13.1543 8.77779 13.0979 8.79204 13.0458 8.81682C12.9938 8.84161 12.9471 8.87643 12.9086 8.9193C12.8701 8.96217 12.8404 9.01223 12.8213 9.06661C12.6986 9.41861 12.3626 9.65327 11.9946 9.65327C11.5146 9.65327 11.1199 9.25861 11.1199 8.77861V8.14394C11.1199 7.66394 11.5146 7.26927 11.9946 7.26927C12.3679 7.26927 12.6986 7.50394 12.8213 7.85594C12.9013 8.08527 13.1519 8.20261 13.3813 8.12261C13.4356 8.10349 13.4857 8.0738 13.5286 8.03527C13.5714 7.99673 13.6063 7.9501 13.6311 7.89806C13.6558 7.84602 13.6701 7.78959 13.673 7.73202C13.6759 7.67445 13.6674 7.61688 13.6479 7.56261C13.5261 7.22143 13.3019 6.92616 13.006 6.71712C12.7101 6.50808 12.3569 6.39545 11.9946 6.39461C11.0293 6.39461 10.2453 7.17861 10.2453 8.14394V8.77861ZM6.2826 10.0906C6.2826 10.3306 6.47994 10.5279 6.71994 10.5279C6.89594 10.5279 7.049 10.4213 7.11834 10.2703C7.38354 10.4324 7.68709 10.5208 7.99781 10.5267C8.30853 10.5326 8.61521 10.4556 8.88634 10.3037C9.15747 10.1519 9.38327 9.93053 9.54055 9.66249C9.69783 9.39446 9.78092 9.08938 9.78127 8.77861V8.14394C9.78089 7.83702 9.69982 7.53559 9.54619 7.26989C9.39255 7.00419 9.17176 6.78356 8.90594 6.63012C8.64013 6.47668 8.33864 6.39584 8.03172 6.39569C7.7248 6.39554 7.42323 6.47609 7.15727 6.62927V4.84261C7.15727 4.60261 6.95994 4.40527 6.71994 4.40527C6.47994 4.40527 6.2826 4.60261 6.2826 4.84261V10.0906ZM7.15727 8.14394C7.15727 7.66394 7.55194 7.26927 8.03194 7.26927C8.51194 7.26927 8.9066 7.66394 8.9066 8.14394V8.77861C8.9066 9.25861 8.51194 9.65327 8.03194 9.65327C7.55194 9.65327 7.15727 9.25861 7.15727 8.77861V8.14394ZM4.79834 10.2202C4.82636 10.3091 4.88191 10.3868 4.95696 10.4422C5.03202 10.4975 5.1227 10.5275 5.21594 10.5279C5.45594 10.5279 5.65327 10.3306 5.65327 10.0906V7.97861C5.65327 7.5585 5.48639 7.15561 5.18933 6.85855C4.89227 6.56149 4.48937 6.39461 4.06927 6.39461H3.02927C2.78927 6.39461 2.59194 6.59194 2.59194 6.83194C2.59194 7.07194 2.78927 7.26927 3.02927 7.26927H4.06927C4.4586 7.26927 4.7786 7.58394 4.7786 7.97861V8.10661H3.5466C2.87994 8.10661 2.33594 8.65061 2.33594 9.31727C2.33594 9.98394 2.87994 10.5279 3.5466 10.5279H3.80794C4.17487 10.5279 4.51567 10.4138 4.79834 10.2202ZM3.1306 9.31727C3.1306 9.08794 3.31727 8.90127 3.5466 8.90127H4.75727C4.6986 9.37061 4.29327 9.73327 3.80794 9.73327H3.5466C3.31727 9.73327 3.1306 9.54661 3.1306 9.31727Z" fill="#222222"/>
<path d="M2.66667 0C2.31648 0 1.96971 0.0689754 1.64618 0.202988C1.32264 0.337 1.02867 0.533426 0.781049 0.781049C0.280952 1.28115 0 1.95942 0 2.66667V13.3333C0 14.0406 0.280952 14.7189 0.781049 15.219C1.02867 15.4666 1.32264 15.663 1.64618 15.797C1.96971 15.931 2.31648 16 2.66667 16H13.3333C14.0406 16 14.7189 15.719 15.219 15.219C15.719 14.7189 16 14.0406 16 13.3333V2.66667C16 2.31648 15.931 1.96971 15.797 1.64618C15.663 1.32264 15.4666 1.02867 15.219 0.781049C14.9713 0.533426 14.6774 0.337 14.3538 0.202988C14.0303 0.0689754 13.6835 0 13.3333 0H2.66667ZM1.06667 2.66667C1.06667 2.24232 1.23524 1.83535 1.5353 1.5353C1.83535 1.23524 2.24232 1.06667 2.66667 1.06667H13.3333C13.7577 1.06667 14.1646 1.23524 14.4647 1.5353C14.7648 1.83535 14.9333 2.24232 14.9333 2.66667V13.3333C14.9333 13.7577 14.7648 14.1646 14.4647 14.4647C14.1646 14.7648 13.7577 14.9333 13.3333 14.9333H2.66667C2.24232 14.9333 1.83535 14.7648 1.5353 14.4647C1.23524 14.1646 1.06667 13.7577 1.06667 13.3333V2.66667Z" fill="#222222"/>
</svg>
