<svg width="20" height="20" viewBox="0 0 20 20" fill="none" xmlns="http://www.w3.org/2000/svg">
<g clip-path="url(#clip0_2073_620)">
<path fill-rule="evenodd" clip-rule="evenodd" d="M1.66667 0C1.22464 0 0.800716 0.225765 0.488155 0.627628C0.175595 1.02949 0 1.57454 0 2.14286V7.85714C0 8.42546 0.175595 8.97051 0.488155 9.37237C0.800716 9.77424 1.22464 10 1.66667 10H8.33333C8.77536 10 9.19928 9.77424 9.51185 9.37237C9.82441 8.97051 10 8.42546 10 7.85714V2.14286C10 1.57454 9.82441 1.02949 9.51185 0.627628C9.19928 0.225765 8.77536 0 8.33333 0H1.66667ZM13.8889 2.85714C13.4469 2.85714 13.0229 3.08291 12.7104 3.48477C12.3978 3.88663 12.2222 4.43168 12.2222 5V15C12.2222 15.5683 12.3978 16.1134 12.7104 16.5152C13.0229 16.9171 13.4469 17.1429 13.8889 17.1429H18.3333C18.7754 17.1429 19.1993 16.9171 19.5118 16.5152C19.8244 16.1134 20 15.5683 20 15V5C20 4.43168 19.8244 3.88663 19.5118 3.48477C19.1993 3.08291 18.7754 2.85714 18.3333 2.85714H13.8889ZM2.77778 12.8571C2.33575 12.8571 1.91183 13.0829 1.59927 13.4848C1.28671 13.8866 1.11111 14.4317 1.11111 15V17.8571C1.11111 18.4255 1.28671 18.9705 1.59927 19.3724C1.91183 19.7742 2.33575 20 2.77778 20H9.44444C9.88647 20 10.3104 19.7742 10.623 19.3724C10.9355 18.9705 11.1111 18.4255 11.1111 17.8571V15C11.1111 14.4317 10.9355 13.8866 10.623 13.4848C10.3104 13.0829 9.88647 12.8571 9.44444 12.8571H2.77778Z" fill="#4E6475"/>
</g>
<defs>
<clipPath id="clip0_2073_620">
<rect width="20" height="20" fill="white"/>
</clipPath>
</defs>
</svg>
