<svg width="16" height="16" viewBox="0 0 16 16" fill="none" xmlns="http://www.w3.org/2000/svg">
<path fill-rule="evenodd" clip-rule="evenodd" d="M15.2951 0.000879393C15.4854 -0.00881665 15.6709 0.0620249 15.8052 0.19569C15.9393 0.32917 16.0098 0.512745 15.9989 0.700606C15.4667 9.95211 7.1358 13.4242 7.05201 13.458C6.80228 13.559 6.51568 13.502 6.32476 13.3136L2.533 9.56514C2.3433 9.37732 2.28527 9.09572 2.38553 8.84951C2.41905 8.76602 5.89243 0.485917 15.2951 0.000879393ZM8.87069 7.76519C9.37167 7.97029 9.9483 7.85683 10.3317 7.47773C10.855 6.96023 10.855 6.12135 10.3317 5.60384C9.9483 5.22474 9.37167 5.11129 8.87069 5.31639C8.36971 5.52149 8.04305 6.00474 8.04305 6.54079C8.04305 7.07683 8.36971 7.56009 8.87069 7.76519Z" fill="#222222"/>
<path d="M0.74602 12.4011C1.22704 11.9223 1.9303 11.7343 2.58983 11.9082C3.24937 12.0822 3.7645 12.5914 3.94042 13.2434C4.11634 13.8954 3.92619 14.5906 3.44188 15.0662C2.6972 15.8023 0 15.8176 0 15.8176C0 15.8176 0 13.1366 0.74602 12.4011Z" fill="#222222"/>
<path d="M6.9421 1.46572C5.02484 1.13584 3.06523 1.75001 1.69046 3.11167C1.332 3.46932 1.02034 3.87002 0.762798 4.30438C0.607678 4.56477 0.650412 4.89592 0.866691 5.10947L2.19988 6.42808C3.4387 4.48449 5.04959 2.79882 6.9421 1.46572Z" fill="#222222"/>
<path d="M14.5175 8.95486C14.8512 10.8502 14.23 12.7874 12.8526 14.1465C12.4908 14.5009 12.0854 14.8089 11.6461 15.0636C11.3827 15.2169 11.0477 15.1747 10.8317 14.9608L9.49782 13.6429C11.4639 12.4182 13.169 10.8257 14.5175 8.95486V8.95486Z" fill="#222222"/>
</svg>
