<svg width="24" height="24" viewBox="0 0 24 24" fill="none" xmlns="http://www.w3.org/2000/svg">
<path d="M10.8525 4.64551V13.8984H13.1475V4.64551H10.8525ZM6.34277 6.98828C4.89505 8.436 4 10.4364 4 12.6455C4 17.0638 7.58172 20.6455 12 20.6455C16.4183 20.6455 20 17.0638 20 12.6455C20 10.4364 19.1049 8.436 17.6572 6.98828L16.0459 8.59961C17.0814 9.63505 17.7217 11.0656 17.7217 12.6455C17.7217 15.8053 15.1597 18.3672 12 18.3672C8.84025 18.3672 6.27832 15.8053 6.27832 12.6455C6.27832 11.0656 6.91865 9.63505 7.95411 8.59961L6.34277 6.98828Z" fill="#EA0000"/>
</svg>
