<svg width="20" height="20" viewBox="0 0 20 20" fill="none" xmlns="http://www.w3.org/2000/svg">
<rect width="20" height="20" rx="4" fill="#4E6475"/>
<path d="M3.33333 0C2.89559 0 2.46214 0.0862192 2.05772 0.253735C1.6533 0.421251 1.28584 0.666782 0.976311 0.976311C0.351189 1.60143 0 2.44928 0 3.33333V16.6667C0 17.5507 0.351189 18.3986 0.976311 19.0237C1.28584 19.3332 1.6533 19.5788 2.05772 19.7463C2.46214 19.9138 2.89559 20 3.33333 20H16.6667C17.5507 20 18.3986 19.6488 19.0237 19.0237C19.6488 18.3986 20 17.5507 20 16.6667V3.33333C20 2.89559 19.9138 2.46214 19.7463 2.05772C19.5788 1.6533 19.3332 1.28584 19.0237 0.976311C18.7142 0.666782 18.3467 0.421251 17.9423 0.253735C17.5379 0.0862192 17.1044 0 16.6667 0H3.33333ZM1.33333 3.33333C1.33333 2.8029 1.54405 2.29419 1.91912 1.91912C2.29419 1.54405 2.8029 1.33333 3.33333 1.33333H16.6667C17.1971 1.33333 17.7058 1.54405 18.0809 1.91912C18.456 2.29419 18.6667 2.8029 18.6667 3.33333V16.6667C18.6667 17.1971 18.456 17.7058 18.0809 18.0809C17.7058 18.456 17.1971 18.6667 16.6667 18.6667H3.33333C2.8029 18.6667 2.29419 18.456 1.91912 18.0809C1.54405 17.7058 1.33333 17.1971 1.33333 16.6667V3.33333Z" fill="#4E6475"/>
<path d="M12.8867 11.4667C12.8867 12.6733 13.8667 13.6533 15.0733 13.6533C15.5262 13.6523 15.9677 13.5115 16.3376 13.2502C16.7074 12.9889 16.9877 12.6198 17.14 12.1933C17.1643 12.1255 17.1749 12.0535 17.1713 11.9816C17.1677 11.9096 17.1499 11.8391 17.1189 11.774C17.0879 11.709 17.0444 11.6507 16.9908 11.6025C16.9372 11.5543 16.8746 11.5172 16.8067 11.4933C16.7388 11.469 16.6669 11.4584 16.5949 11.462C16.5229 11.4656 16.4524 11.4835 16.3874 11.5144C16.3223 11.5454 16.264 11.5889 16.2158 11.6425C16.1677 11.6961 16.1306 11.7587 16.1067 11.8267C15.9533 12.2667 15.5333 12.56 15.0733 12.56C14.4733 12.56 13.98 12.0667 13.98 11.4667V10.6733C13.98 10.0733 14.4733 9.58 15.0733 9.58C15.54 9.58 15.9533 9.87333 16.1067 10.3133C16.2067 10.6 16.52 10.7467 16.8067 10.6467C16.8746 10.6228 16.9372 10.5857 16.9908 10.5375C17.0444 10.4893 17.0879 10.431 17.1189 10.366C17.1499 10.3009 17.1677 10.2304 17.1713 10.1584C17.1749 10.0865 17.1643 10.0145 17.14 9.94667C16.9877 9.52019 16.7074 9.15111 16.3376 8.88981C15.9677 8.62851 15.5262 8.48773 15.0733 8.48667C13.8667 8.48667 12.8867 9.46667 12.8867 10.6733V11.4667ZM7.93333 13.1067C7.93333 13.4067 8.18 13.6533 8.48 13.6533C8.7 13.6533 8.89133 13.52 8.978 13.3313C9.3095 13.5339 9.68894 13.6445 10.0773 13.6518C10.4657 13.6591 10.8491 13.5629 11.188 13.3731C11.5269 13.1832 11.8092 12.9066 12.0058 12.5715C12.2024 12.2365 12.3062 11.8551 12.3067 11.4667V10.6733C12.3062 10.2897 12.2049 9.9129 12.0128 9.58077C11.8208 9.24865 11.5448 8.97286 11.2125 8.78106C10.8802 8.58926 10.5034 8.4882 10.1197 8.48802C9.73608 8.48783 9.35912 8.58853 9.02667 8.78V6.54667C9.02667 6.24667 8.78 6 8.48 6C8.18 6 7.93333 6.24667 7.93333 6.54667V13.1067ZM9.02667 10.6733C9.02667 10.0733 9.52 9.58 10.12 9.58C10.72 9.58 11.2133 10.0733 11.2133 10.6733V11.4667C11.2133 12.0667 10.72 12.56 10.12 12.56C9.52 12.56 9.02667 12.0667 9.02667 11.4667V10.6733ZM6.078 13.2687C6.11303 13.3798 6.18246 13.477 6.27628 13.5461C6.3701 13.6152 6.48346 13.6528 6.6 13.6533C6.9 13.6533 7.14667 13.4067 7.14667 13.1067V10.4667C7.14667 9.94154 6.93806 9.43792 6.56674 9.0666C6.19542 8.69527 5.6918 8.48667 5.16667 8.48667H3.86667C3.56667 8.48667 3.32 8.73333 3.32 9.03333C3.32 9.33333 3.56667 9.58 3.86667 9.58H5.16667C5.65333 9.58 6.05333 9.97333 6.05333 10.4667V10.6267H4.51333C3.68 10.6267 3 11.3067 3 12.14C3 12.9733 3.68 13.6533 4.51333 13.6533H4.84C5.29867 13.6533 5.72467 13.5107 6.078 13.2687ZM3.99333 12.14C3.99333 11.8533 4.22667 11.62 4.51333 11.62H6.02667C5.95333 12.2067 5.44667 12.66 4.84 12.66H4.51333C4.22667 12.66 3.99333 12.4267 3.99333 12.14Z" fill="white"/>
</svg>
