<svg width="20" height="20" viewBox="0 0 20 20" fill="none" xmlns="http://www.w3.org/2000/svg">
<path d="M7.18433 8.59562V11.3977L10.0328 12.8685L12.8682 11.4005V8.59271L10.0329 7.12085L7.18433 8.59562Z" fill="#4E6475"/>
<path d="M5.38281 7.70257V12.2923L10.0342 14.694L14.6699 12.2939V7.70088L10.0342 5.29443L5.38281 7.70257ZM13.5492 8.03276C13.6856 8.10355 13.7691 8.23161 13.7691 8.3699V11.624C13.7691 11.7625 13.6854 11.8907 13.5488 11.9614L10.2633 13.6624C10.1238 13.7346 9.9475 13.7369 9.8036 13.6626L6.50437 11.9591C6.36749 11.8885 6.28358 11.7602 6.28358 11.6215V8.37253C6.28358 8.23408 6.36731 8.10591 6.50392 8.03515L9.80319 6.32705C9.94521 6.2535 10.1219 6.25366 10.2638 6.32728L13.5492 8.03276Z" fill="#4E6475"/>
<path d="M17.4665 7.51056C16.5852 7.23417 16.0584 6.45888 16.1961 5.66334L11.2759 3.10938C10.5438 3.66118 9.47625 3.65694 8.75601 3.13465L3.80829 5.69603C3.9235 6.47752 3.40995 7.21541 2.58643 7.49479V12.5068C3.43517 12.7973 3.92206 13.5456 3.80964 14.3023L8.76501 16.8614C9.51134 16.3289 10.5675 16.3573 11.2698 16.8848L16.1969 14.3336C16.0615 13.5272 16.5985 12.7566 17.4665 12.4876V7.51056ZM15.5708 12.5171C15.5708 12.6556 15.4872 12.7838 15.3505 12.8545L10.2646 15.4876C10.1252 15.5599 9.94886 15.5621 9.80496 15.4878L4.70284 12.8535C4.56596 12.7828 4.48205 12.6545 4.48205 12.5159V7.47921C4.48205 7.34076 4.56578 7.21255 4.70239 7.14183L9.80451 4.50032C9.94652 4.42678 10.1233 4.42689 10.2651 4.50055L15.3509 7.14069C15.4873 7.21149 15.5708 7.33954 15.5708 7.47783V12.5171Z" fill="#4E6475"/>
<path d="M0.225316 5.53613L0.831969 5.84125C0.782649 6.39305 1.29647 6.84509 1.91078 6.82579C2.25953 6.8159 2.59459 6.6541 2.78272 6.3717L2.78385 6.37001C2.9791 6.07537 2.96446 5.7254 2.78034 5.45152C2.47402 4.99559 1.78615 4.85985 1.28219 5.1614L0.675677 4.85636C0.460248 4.74797 0.184779 4.81233 0.060422 5.00003C-0.0639803 5.18777 0.00988634 5.42778 0.225316 5.53613Z" fill="#4E6475"/>
<path d="M19.7747 14.4641L19.168 14.1589C19.2176 13.6042 18.7006 13.1552 18.0892 13.1744C17.7405 13.1843 17.4054 13.3461 17.2173 13.6285L17.2162 13.6302C17.0209 13.9248 17.0355 14.2748 17.2197 14.5487C17.526 15.0047 18.214 15.1403 18.7179 14.8388L19.3242 15.1439C19.5393 15.252 19.8148 15.1883 19.9395 15.0002C20.0639 14.8125 19.9901 14.5725 19.7747 14.4641Z" fill="#4E6475"/>
<path d="M9.99771 2.73997H9.99996C10.5828 2.73997 11.0481 2.32749 11.0481 1.82678C11.0481 1.46119 10.8023 1.14893 10.4504 1.00259V0.392434C10.4504 0.175693 10.2487 0 9.99996 0C9.7512 0 9.54956 0.175693 9.54956 0.392434V1.00283C9.18946 1.15281 8.95187 1.4688 8.95187 1.82678C8.95187 2.32611 9.41583 2.73876 9.99771 2.73997Z" fill="#4E6475"/>
<path d="M2.7838 13.6299C2.49252 13.1904 1.84997 13.0452 1.35209 13.2957C0.988342 13.4787 0.801198 13.8205 0.831735 14.1589L0.225353 14.4638C0.00987839 14.5722 -0.0639433 14.8122 0.0603689 14.9999C0.185086 15.1881 0.46069 15.2516 0.675624 15.1436L1.28246 14.8384C1.61098 15.0347 2.04382 15.0566 2.40019 14.8774C2.89653 14.6277 3.07467 14.0713 2.78492 13.6316L2.7838 13.6299Z" fill="#4E6475"/>
<path d="M10.0022 17.26H9.99994C9.41707 17.26 8.95184 17.6725 8.95184 18.1732C8.95184 18.5388 9.19763 18.8511 9.54953 18.9974V19.6076C9.54953 19.8243 9.75118 20 9.99994 20C10.2487 20 10.4503 19.8243 10.4503 19.6076V18.9972C10.8104 18.8472 11.048 18.5312 11.048 18.1732C11.048 17.6738 10.5841 17.2612 10.0022 17.26Z" fill="#4E6475"/>
<path d="M17.2161 6.37005C17.4113 6.66469 17.7665 6.82865 18.1307 6.82665C18.7373 6.82347 19.216 6.37209 19.1682 5.84109L19.7746 5.53617C19.99 5.42782 20.0638 5.18784 19.9395 5.0001C19.8151 4.8124 19.5397 4.74792 19.3242 4.85635L18.7174 5.16151C18.198 4.85117 17.4903 5.00579 17.1996 5.48335C17.035 5.75146 17.0283 6.08514 17.2149 6.36832L17.2161 6.37005Z" fill="#4E6475"/>
</svg>
