<svg width="20" height="20" viewBox="0 0 20 20" fill="none" xmlns="http://www.w3.org/2000/svg">
<path d="M2.50083 9.99675L5.00083 10.0001C5.21303 10.0009 5.4169 10.0827 5.57087 10.2287C5.72484 10.3747 5.81732 10.574 5.82944 10.7858C5.84155 10.9977 5.7724 11.2062 5.63608 11.3688C5.49976 11.5314 5.30654 11.6359 5.09583 11.6609L5 11.6667L3.33333 11.6634V15.8326L5 15.8334C5.20411 15.8334 5.40112 15.9084 5.55364 16.044C5.70617 16.1796 5.80362 16.3665 5.8275 16.5692L5.83333 16.6667C5.83331 16.8709 5.75837 17.0679 5.62274 17.2204C5.48711 17.3729 5.30021 17.4704 5.0975 17.4942L5 17.5001H2.5C2.29589 17.5001 2.09889 17.4251 1.94636 17.2895C1.79383 17.1539 1.69638 16.967 1.6725 16.7642L1.66667 16.6667V10.8301C1.66654 10.6256 1.74162 10.4282 1.87761 10.2754C2.0136 10.1227 2.20101 10.0253 2.40417 10.0017L2.50083 9.99675ZM17.5 14.1667C17.7124 14.167 17.9167 14.2483 18.0711 14.3941C18.2256 14.5399 18.3185 14.7392 18.331 14.9512C18.3434 15.1633 18.2744 15.3721 18.1381 15.5349C18.0018 15.6978 17.8084 15.8025 17.5975 15.8276L17.5 15.8334H7.5C7.2876 15.8332 7.08331 15.7519 6.92886 15.606C6.77441 15.4602 6.68147 15.261 6.66902 15.0489C6.65658 14.8369 6.72556 14.6281 6.86189 14.4652C6.99821 14.3023 7.19159 14.1977 7.4025 14.1726L7.5 14.1667H17.5ZM17.5 11.6667C17.7124 11.667 17.9167 11.7483 18.0711 11.8941C18.2256 12.0399 18.3185 12.2392 18.331 12.4512C18.3434 12.6633 18.2744 12.8721 18.1381 13.0349C18.0018 13.1978 17.8084 13.3025 17.5975 13.3276L17.5 13.3334H7.5C7.2876 13.3332 7.08331 13.2518 6.92886 13.106C6.77441 12.9602 6.68147 12.761 6.66902 12.5489C6.65658 12.3369 6.72556 12.1281 6.86189 11.9652C6.99821 11.8023 7.19159 11.6977 7.4025 11.6726L7.5 11.6667H17.5ZM5 1.66675C5.2124 1.66698 5.4167 1.74831 5.57114 1.89412C5.72559 2.03993 5.81853 2.23921 5.83098 2.45124C5.84343 2.66328 5.77444 2.87206 5.63811 3.03494C5.50179 3.19782 5.30841 3.3025 5.0975 3.32758L5 3.33341H3.33333V7.49592H5C5.20411 7.49594 5.40112 7.57088 5.55364 7.70651C5.70617 7.84214 5.80362 8.02904 5.8275 8.23175L5.83333 8.32925C5.83331 8.53336 5.75837 8.73036 5.62274 8.88289C5.48711 9.03542 5.30021 9.13287 5.0975 9.15675L5 9.16258H2.5C2.29589 9.16255 2.09889 9.08762 1.94636 8.95199C1.79383 8.81635 1.69638 8.62946 1.6725 8.42675L1.66667 8.32925V2.50008C1.6667 2.29597 1.74163 2.09897 1.87726 1.94644C2.0129 1.79391 2.19979 1.69646 2.4025 1.67258L2.5 1.66675H5ZM17.5 5.83341C17.7124 5.83365 17.9167 5.91498 18.0711 6.06079C18.2256 6.2066 18.3185 6.40588 18.331 6.61791C18.3434 6.82995 18.2744 7.03873 18.1381 7.20161C18.0018 7.36449 17.8084 7.46916 17.5975 7.49425L17.5 7.50008H7.5C7.2876 7.49985 7.08331 7.41852 6.92886 7.27271C6.77441 7.1269 6.68147 6.92762 6.66902 6.71559C6.65658 6.50355 6.72556 6.29477 6.86189 6.13189C6.99821 5.96901 7.19159 5.86433 7.4025 5.83925L7.5 5.83341H17.5ZM17.5 3.33341C17.7124 3.33365 17.9167 3.41498 18.0711 3.56079C18.2256 3.7066 18.3185 3.90588 18.331 4.11791C18.3434 4.32995 18.2744 4.53873 18.1381 4.70161C18.0018 4.86449 17.8084 4.96916 17.5975 4.99425L17.5 5.00008H7.5C7.2876 4.99985 7.08331 4.91852 6.92886 4.77271C6.77441 4.6269 6.68147 4.42762 6.66902 4.21559C6.65658 4.00355 6.72556 3.79477 6.86189 3.63189C6.99821 3.46901 7.19159 3.36433 7.4025 3.33925L7.5 3.33341H17.5Z" fill="#4E6475"/>
</svg>
