<svg width="20" height="22" viewBox="0 0 20 22" fill="none" xmlns="http://www.w3.org/2000/svg">
<path d="M3.3322 4.88889C3.3322 3.59227 3.85902 2.34877 4.79676 1.43192C5.73451 0.515078 7.00636 0 8.33254 0C9.65871 0 10.9306 0.515078 11.8683 1.43192C12.8061 2.34877 13.3329 3.59227 13.3329 4.88889C13.3329 5.10499 13.2451 5.31224 13.0888 5.46505C12.9325 5.61786 12.7205 5.7037 12.4995 5.7037C12.2785 5.7037 12.0665 5.61786 11.9102 5.46505C11.7539 5.31224 11.6661 5.10499 11.6661 4.88889C11.6661 4.02448 11.3149 3.19547 10.6897 2.58424C10.0646 1.97301 9.21665 1.62963 8.33254 1.62963C7.44842 1.62963 6.60052 1.97301 5.97535 2.58424C5.35019 3.19547 4.99898 4.02448 4.99898 4.88889C4.99898 5.10499 4.91117 5.31224 4.75488 5.46505C4.59859 5.61786 4.38662 5.7037 4.16559 5.7037C3.94456 5.7037 3.73258 5.61786 3.57629 5.46505C3.42 5.31224 3.3322 5.10499 3.3322 4.88889ZM18.253 10.5926C17.3561 10.6333 16.6664 11.3891 16.6664 12.266V13.0075C16.6693 13.2178 16.5907 13.4213 16.4463 13.5772C16.3019 13.7331 16.1026 13.8298 15.8883 13.8478C15.7743 13.8552 15.6599 13.8396 15.5524 13.802C15.4448 13.7643 15.3463 13.7055 15.2629 13.6291C15.1796 13.5527 15.1132 13.4603 15.0679 13.3578C15.0226 13.2552 14.9994 13.1447 14.9997 13.033V10.6384C14.9997 9.76148 14.31 9.0088 13.4131 8.965C13.1877 8.95438 12.9625 8.98861 12.7511 9.06561C12.5396 9.14262 12.3464 9.26079 12.1831 9.41297C12.0197 9.56514 11.8897 9.74816 11.8008 9.95093C11.7119 10.1537 11.6661 10.372 11.6661 10.5926V12.1947C11.669 12.405 11.5903 12.6086 11.446 12.7644C11.3016 12.9203 11.1022 13.017 10.8879 13.035C10.7739 13.0424 10.6596 13.0268 10.552 12.9892C10.4444 12.9516 10.3459 12.8927 10.2626 12.8163C10.1793 12.7399 10.1129 12.6475 10.0676 12.545C10.0223 12.4424 9.99907 12.3319 9.99932 12.2202V4.93472C9.99932 4.05778 9.30969 3.30509 8.41275 3.2613C8.18739 3.25068 7.96216 3.28491 7.75073 3.36191C7.5393 3.43891 7.34605 3.55708 7.18271 3.70926C7.01937 3.86144 6.88933 4.04446 6.80047 4.24723C6.71161 4.45 6.66578 4.66829 6.66576 4.88889V17.0846C6.66829 17.2817 6.59938 17.4733 6.47124 17.6254C6.3431 17.7775 6.16401 17.8804 5.96571 17.9157H5.95321C5.8289 17.9294 5.70323 17.9068 5.59202 17.8508C5.48081 17.7948 5.38901 17.7079 5.32817 17.601L3.14052 13.8895C2.69257 13.1297 1.70917 12.813 0.911199 13.2153C0.709559 13.3155 0.530904 13.4549 0.386116 13.6248C0.241328 13.7948 0.133438 13.9917 0.0690156 14.2038C0.00459349 14.4158 -0.0150118 14.6384 0.0113942 14.8581C0.0378002 15.0777 0.109665 15.2898 0.22261 15.4815L3.452 21.5977C3.5251 21.7194 3.6293 21.8205 3.7544 21.8911C3.87949 21.9616 4.02119 21.9991 4.16559 22H18.3332C18.488 22.0001 18.6398 21.958 18.7716 21.8785C18.9033 21.799 19.0098 21.6852 19.0791 21.5498C19.1166 21.4765 20 20.0159 20 17.4095V12.2222C20.0003 12.0015 19.9546 11.7829 19.8659 11.5799C19.7772 11.3769 19.6472 11.1937 19.4838 11.0413C19.3204 10.8889 19.1271 10.7705 18.9155 10.6934C18.7039 10.6163 18.4785 10.582 18.253 10.5926Z" fill="#4E6475"/>
</svg>
