<svg width="18" height="17" viewBox="0 0 18 17" fill="none" xmlns="http://www.w3.org/2000/svg">
<path d="M1.50082 8.99675L4.00082 9.00008C4.21301 9.00094 4.41689 9.08271 4.57086 9.22872C4.72483 9.37473 4.81731 9.57397 4.82943 9.78582C4.84154 9.99767 4.77239 10.2062 4.63607 10.3688C4.49975 10.5314 4.30653 10.6359 4.09582 10.6609L3.99999 10.6667L2.33332 10.6634V14.8326L3.99999 14.8334C4.2041 14.8334 4.4011 14.9084 4.55363 15.044C4.70616 15.1796 4.80361 15.3665 4.82749 15.5692L4.83332 15.6667C4.8333 15.8709 4.75836 16.0679 4.62273 16.2204C4.48709 16.3729 4.3002 16.4704 4.09749 16.4942L3.99999 16.5001H1.49999C1.29588 16.5001 1.09888 16.4251 0.946347 16.2895C0.793818 16.1539 0.696371 15.967 0.67249 15.7642L0.666657 15.6667V9.83008C0.666527 9.62557 0.741605 9.42815 0.877598 9.27541C1.01359 9.12267 1.201 9.02527 1.40416 9.00175L1.50082 8.99675ZM16.5 13.1667C16.7124 13.167 16.9167 13.2483 17.0711 13.3941C17.2256 13.5399 17.3185 13.7392 17.331 13.9512C17.3434 14.1633 17.2744 14.3721 17.1381 14.5349C17.0018 14.6978 16.8084 14.8025 16.5975 14.8276L16.5 14.8334H6.49999C6.28759 14.8332 6.0833 14.7519 5.92885 14.606C5.7744 14.4602 5.68146 14.261 5.66901 14.0489C5.65657 13.8369 5.72555 13.6281 5.86188 13.4652C5.9982 13.3023 6.19158 13.1977 6.40249 13.1726L6.49999 13.1667H16.5ZM16.5 10.6667C16.7124 10.667 16.9167 10.7483 17.0711 10.8941C17.2256 11.0399 17.3185 11.2392 17.331 11.4512C17.3434 11.6633 17.2744 11.8721 17.1381 12.0349C17.0018 12.1978 16.8084 12.3025 16.5975 12.3276L16.5 12.3334H6.49999C6.28759 12.3332 6.0833 12.2518 5.92885 12.106C5.7744 11.9602 5.68146 11.761 5.66901 11.5489C5.65657 11.3369 5.72555 11.1281 5.86188 10.9652C5.9982 10.8023 6.19158 10.6977 6.40249 10.6726L6.49999 10.6667H16.5ZM3.99999 0.666748C4.21239 0.666984 4.41668 0.748314 4.57113 0.894122C4.72558 1.03993 4.81852 1.23921 4.83097 1.45124C4.84341 1.66328 4.77443 1.87206 4.6381 2.03494C4.50178 2.19782 4.3084 2.3025 4.09749 2.32758L3.99999 2.33341H2.33332V6.49592H3.99999C4.2041 6.49594 4.4011 6.57088 4.55363 6.70651C4.70616 6.84214 4.80361 7.02904 4.82749 7.23175L4.83332 7.32925C4.8333 7.53336 4.75836 7.73036 4.62273 7.88289C4.48709 8.03542 4.3002 8.13287 4.09749 8.15675L3.99999 8.16258H1.49999C1.29588 8.16255 1.09888 8.08762 0.946347 7.95199C0.793818 7.81635 0.696371 7.62946 0.67249 7.42675L0.666657 7.32925V1.50008C0.666684 1.29597 0.74162 1.09897 0.877253 0.946438C1.01289 0.793909 1.19978 0.696462 1.40249 0.672581L1.49999 0.666748H3.99999ZM16.5 4.83341C16.7124 4.83365 16.9167 4.91498 17.0711 5.06079C17.2256 5.2066 17.3185 5.40588 17.331 5.61791C17.3434 5.82995 17.2744 6.03873 17.1381 6.20161C17.0018 6.36449 16.8084 6.46916 16.5975 6.49425L16.5 6.50008H6.49999C6.28759 6.49985 6.0833 6.41852 5.92885 6.27271C5.7744 6.1269 5.68146 5.92762 5.66901 5.71559C5.65657 5.50355 5.72555 5.29477 5.86188 5.13189C5.9982 4.96901 6.19158 4.86433 6.40249 4.83925L6.49999 4.83341H16.5ZM16.5 2.33341C16.7124 2.33365 16.9167 2.41498 17.0711 2.56079C17.2256 2.7066 17.3185 2.90588 17.331 3.11791C17.3434 3.32995 17.2744 3.53873 17.1381 3.70161C17.0018 3.86449 16.8084 3.96916 16.5975 3.99425L16.5 4.00008H6.49999C6.28759 3.99985 6.0833 3.91852 5.92885 3.77271C5.7744 3.6269 5.68146 3.42762 5.66901 3.21559C5.65657 3.00355 5.72555 2.79477 5.86188 2.63189C5.9982 2.46901 6.19158 2.36433 6.40249 2.33925L6.49999 2.33341H16.5Z" fill="#4E6475"/>
</svg>
